<?xml version="1.0" standalone="no"?>
<!DOCTYPE svg PUBLIC "-//W3C//DTD SVG 20010904//EN"
 "http://www.w3.org/TR/2001/REC-SVG-20010904/DTD/svg10.dtd">
<svg version="1.0" xmlns="http://www.w3.org/2000/svg"
 width="498.000000pt" height="498.000000pt" viewBox="0 0 498.000000 498.000000"
 preserveAspectRatio="xMidYMid meet">
<metadata>
Created by potrace 1.14, written by Peter Selinger 2001-2017
</metadata>
<g transform="translate(0.000000,498.000000) scale(0.100000,-0.100000)"
fill="#000000" stroke="none">
<path d="M777 4974 c-1 -1 -31 -4 -67 -7 -115 -10 -170 -25 -290 -80 -220
-100 -379 -304 -407 -520 -8 -67 -8 -3685 0 -3752 17 -133 85 -263 193 -370
141 -140 308 -216 514 -234 41 -3 989 -6 2106 -5 1989 0 2031 1 2064 20 111
65 109 213 -5 271 -23 12 -64 16 -182 16 l-153 0 0 392 0 393 33 11 c192 70
319 192 369 354 l21 72 1 1465 c1 1327 -1 1512 -18 1588 -9 40 -60 132 -101
181 -87 105 -228 179 -370 197 -46 5 -3701 13 -3708 8z"/>
</g>
</svg>
